# xmcd
#
# Track frame offsets:
#  150
#  10763
#  23284
#  35558
#  51844
#  66363
#  76371
#  89538
#  102870
#  118107
#  129935
#  141402
#  160383
#
# Disc length: 2272 seconds
#
# Revision: 0
# Processed by: cddbd v1.5.1PL2 Copyright (c) Steve Scherf et al.
# Submitted via: Collectorz.com_Music_Collector 6.9
#
DISCID=a708de0d
DTITLE=Lou Pride - The Memphis/El Paso Sessions 1970 - 73
DYEAR=2003
DGENRE=Blues - R&B/Soul - Soul
TTITLE0=Your Love Is Fading ( El Paso )
TTITLE1=Lonely Room
TTITLE2=Look Out Love
TTITLE3=I'm Com'un Home In The Morn'un
TTITLE4=We're Only Fooling Ourselves
TTITLE5=Phoney People
TTITLE6=It's A Man's Man's Man's World
TTITLE7=Work For Love
TTITLE8=I'm Not Through Loving You
TTITLE9=Your Love Is Fading ( Memphis)
TTITLE10=Message To The People
TTITLE11=Tomorrow Is Promised To No One
TTITLE12=There's Got To Be Someone For Me
EXTD=
EXTT0=
EXTT1=
EXTT2=
EXTT3=
EXTT4=
EXTT5=
EXTT6=
EXTT7=
EXTT8=
EXTT9=
EXTT10=
EXTT11=
EXTT12=
PLAYORDER=
